PathFileType	4	(X/Y/Z)	/Users/itak/Documents/Research/Walk-IL/dataset/trc/00240_00009.trc
DataRate	CameraRate	NumFrames	NumMarkers	Units	OrigDataRate	OrigDataStartFrame	OrigNumFrames
100.000000	100.000000	4	54	mm	100.000000	538	861
Frame#	Time	RPSI			LPSI			L3			STRN			T10			C7			CLAV			RBAK			LBAK			LSHO			LUPA			LAEL			LAOL			LWTS			LWPS			LFRA			LIFD			LHPS			LHTS			RSHO			RUPA			RAEL			RAOL			RWTS			RWPS			RFRA			RIFD			RHTS			RHPS			RBHD			LFHD			RFHD			LBHD			LHIP			RHIP			RASI			LASI			LKNE			LTHI			LANK			LTIP			LTOE			LMT1			LHEE			RKNE			RTHI			RANK			RTIP			RTOE			RMT1			RMT5			RHEE			LMT5			*53			
		X1	Y1	Z1	X2	Y2	Z2	X3	Y3	Z3	X4	Y4	Z4	X5	Y5	Z5	X6	Y6	Z6	X7	Y7	Z7	X8	Y8	Z8	X9	Y9	Z9	X10	Y10	Z10	X11	Y11	Z11	X12	Y12	Z12	X13	Y13	Z13	X14	Y14	Z14	X15	Y15	Z15	X16	Y16	Z16	X17	Y17	Z17	X18	Y18	Z18	X19	Y19	Z19	X20	Y20	Z20	X21	Y21	Z21	X22	Y22	Z22	X23	Y23	Z23	X24	Y24	Z24	X25	Y25	Z25	X26	Y26	Z26	X27	Y27	Z27	X28	Y28	Z28	X29	Y29	Z29	X30	Y30	Z30	X31	Y31	Z31	X32	Y32	Z32	X33	Y33	Z33	X34	Y34	Z34	X35	Y35	Z35	X36	Y36	Z36	X37	Y37	Z37	X38	Y38	Z38	X39	Y39	Z39	X40	Y40	Z40	X41	Y41	Z41	X42	Y42	Z42	X43	Y43	Z43	X44	Y44	Z44	X45	Y45	Z45	X46	Y46	Z46	X47	Y47	Z47	X48	Y48	Z48	X49	Y49	Z49	X50	Y50	Z50	X51	Y51	Z51	X52	Y52	Z52	X53	Y53	Z53	X54	Y54	Z54	

539	5.38	421.4691162109375	1000.483459472656	-430.2022705078125	505.383056640625	1015.145324707031	-514.5123901367188	470.3857727050781	1094.845581054688	-487.7626647949219	646.2801513671875	1271.712646484375	-302.8332824707031	467.9367370605469	1221.637573242188	-483.1701049804688	519.2218017578125	1481.271850585938	-436.0595397949219	628.8745727539062	1389.800170898438	-317.8398132324219	410.5603332519531	1345.146606445312	-447.7670288085938	585.5194091796875	1444.06591796875	-528.1613159179688	686.012939453125	1440.345947265625	-499.8893737792969	727.9276733398438	1326.83056640625	-575.9287719726562	783.1766357421875	1122.326293945312	-583.921630859375	703.111328125	1094.012084960938	-605.5270385742188	834.8641967773438	908.415283203125	-455.2337036132812	881.3472290039062	890.4041137695312	-523.558837890625	824.3778076171875	1021.912414550781	-567.0853881835938	879.4600830078125	720.7971801757812	-432.8041687011719	906.2290649414062	808.7966918945312	-496.4310607910156	891.3609619140625	819.2442016601562	-430.1592712402344	433.7364807128906	1437.097778320312	-280.0362854003906	369.3276977539062	1372.536743164062	-252.1813049316406	317.3589172363281	1093.186645507812	-254.8707122802734	362.1128234863281	1088.017822265625	-338.8665771484375	438.3496704101562	879.1895141601562	-182.4360046386719	354.1001281738281	864.2454833984375	-180.4086761474609	323.0690002441406	1024.637939453125	-227.6769866943359	453.0227966308594	686.1555786132812	-168.5742034912109	452.1319274902344	760.0055541992188	-139.5344085693359	380.3231811523438	758.2445678710938	-148.6122589111328	528.2901611328125	1646.29833984375	-369.5762939453125	721.12109375	1654.470458984375	-247.9331970214844	638.4514770507812	1653.392211914062	-192.7252502441406	665.3336791992188	1645.723266601562	-402.6665649414062	675.9446411132812	962.4061889648438	-556.0346069335938	427.9896240234375	958.8792114257812	-286.0751953125	520.6921997070312	1003.385559082031	-247.9033660888672	718.364501953125	1001.448425292969	-448.5820617675781	613.5296020507812	484.5245971679688	-565.3884887695312	650.2363891601562	626.2942504882812	-564.3681030273438	400.8354187011719	60.4644889831543	-709.2864990234375	510.9820251464844	291.6997680664062	-649.70654296875	560.1397094726562	35.79404830932617	-561.2486572265625	481.54296875	40.13048934936523	-557.0322875976562	325.6001281738281	88.99451446533203	-692.0588989257812	589.3832397460938	495.9892578125	-214.3230743408203	494.2153015136719	751.3603515625	-218.4251861572266	695.7156372070312	23.08868980407715	-247.2274169921875	633.6441650390625	383.0855102539062	-204.440185546875	783.9609985351562	64.88735961914062	-60.25030136108398	814.8689575195312	53.06061935424805	-121.9857864379883	699.4207153320312	32.48738098144531	-135.2328338623047	738.5895385742188	21.35335922241211	-319.5151672363281	516.0202026367188	32.00223541259766	-668.1668090820312	nan	nan	nan	
540	5.39	427.4070434570312	1001.3857421875	-424.6880187988281	512.4808349609375	1015.57177734375	-508.0430603027344	476.9986877441406	1094.990966796875	-481.8270263671875	650.3450927734375	1272.733764648438	-295.1292114257812	473.8818664550781	1221.86962890625	-477.3441772460938	523.7188110351562	1481.7099609375	-429.6877746582031	632.5885620117188	1390.70458984375	-310.4359741210938	415.6932983398438	1345.164428710938	-442.4086608886719	590.9114379882812	1444.748657226562	-521.12060546875	691.29248046875	1441.400268554688	-492.124267578125	733.1624755859375	1327.507568359375	-567.868896484375	786.8594360351562	1122.752075195312	-576.3167114257812	706.46923828125	1095.150390625	-598.0342407226562	836.3862915039062	907.3265380859375	-449.0568542480469	882.68798828125	889.4116821289062	-517.572509765625	827.0430908203125	1021.799011230469	-560.1087646484375	878.659912109375	718.9876098632812	-428.4124450683594	906.5989990234375	807.2396240234375	-491.0953674316406	891.8651733398438	817.2880249023438	-424.7796630859375	436.8988647460938	1437.210815429688	-274.5531311035156	372.5094604492188	1372.46630859375	-247.2132568359375	321.292236328125	1093.077392578125	-250.1723480224609	366.6146545410156	1087.81787109375	-333.7073364257812	440.5054626464844	878.3637084960938	-177.0291595458984	356.1802062988281	863.9479370117188	-175.7628173828125	326.4307250976562	1024.570190429688	-223.0365905761719	453.7007751464844	685.1705322265625	-163.8261413574219	453.1564636230469	758.9232788085938	-134.4421844482422	381.4411315917969	757.6806030273438	-144.1197052001953	531.3975219726562	1646.751586914062	-363.4126281738281	722.8453979492188	1655.909912109375	-239.6138153076172	639.6311645507812	1654.499145507812	-185.3500823974609	668.8749389648438	1646.788208007812	-395.0059204101562	683.3551025390625	962.1063232421875	-547.5104370117188	432.2214050292969	960.1251831054688	-280.42138671875	524.4369506835938	1004.333801269531	-241.3293914794922	724.5485229492188	1001.427917480469	-439.5499877929688	621.4317626953125	484.2101745605469	-557.317626953125	657.8711547851562	625.9364624023438	-555.6476440429688	402.8657836914062	64.71492767333984	-709.1973266601562	516.3386840820312	294.2947387695312	-645.4749755859375	560.4412231445312	35.7180290222168	-561.2779541015625	482.2003479003906	41.02645874023438	-556.9356079101562	328.3675537109375	95.14730834960938	-691.7312622070312	593.640869140625	496.9341430664062	-208.3205718994141	498.067626953125	752.1932373046875	-211.9808502197266	696.0790405273438	23.81678199768066	-246.5554962158203	637.5919799804688	383.4425659179688	-199.2582855224609	786.1627197265625	60.66315078735352	-58.33472442626953	816.53466796875	49.90092086791992	-120.7515563964844	700.7219848632812	32.27025985717773	-134.3408203125	738.9555053710938	22.21248435974121	-318.8306274414062	516.5625610351562	32.27506256103516	-667.8151245117188	nan	nan	nan	
541	5.4	433.3515625	1002.356201171875	-419.2427368164062	519.5985107421875	1016.120056152344	-501.529052734375	483.5860290527344	1095.360229492188	-475.9306945800781	654.315673828125	1273.903198242188	-287.3633728027344	479.8485107421875	1222.322875976562	-471.5331115722656	528.2310180664062	1482.3310546875	-423.2730712890625	636.246826171875	1391.77001953125	-302.968994140625	420.8083801269531	1345.404052734375	-437.0136413574219	596.330810546875	1445.629028320312	-514.003662109375	696.5855102539062	1442.672729492188	-484.2313232421875	738.3976440429688	1328.430908203125	-559.7220458984375	790.3814697265625	1123.433349609375	-568.82666015625	709.6538696289062	1096.590576171875	-590.6097412109375	837.7369995117188	906.4813232421875	-443.02587890625	883.8226928710938	888.6868896484375	-511.7801818847656	829.5277099609375	1021.929138183594	-553.2814331054688	877.638427734375	717.4515380859375	-424.2240295410156	906.7179565429688	805.9296264648438	-485.9743041992188	892.15380859375	815.5607299804688	-419.5976867675781	440.0536804199219	1437.5537109375	-269.0545654296875	375.6624755859375	1372.634643554688	-242.2306823730469	325.2486572265625	1093.207275390625	-245.4095153808594	371.2442321777344	1087.834350585938	-328.4867248535156	442.6835021972656	877.7944946289062	-171.5679321289062	358.3461303710938	863.941162109375	-170.9912719726562	329.8545837402344	1024.753784179688	-218.3111572265625	454.3572387695312	684.4261474609375	-159.0675659179688	454.2313232421875	758.0819702148438	-129.3179626464844	382.6184997558594	757.4066162109375	-139.5252227783203	534.506103515625	1647.328979492188	-357.2266540527344	724.4825439453125	1657.499633789062	-231.2239685058594	640.6860961914062	1655.749755859375	-177.9653625488281	672.4141845703125	1648.005126953125	-387.2868957519531	690.7864379882812	961.897216796875	-538.6696166992188	436.1817016601562	961.506103515625	-274.8381042480469	527.8837890625	1005.569152832031	-234.672607421875	730.5380249023438	1001.537048339844	-430.2492980957031	630.0198974609375	483.90966796875	-548.7220458984375	665.9475708007812	625.6477661132812	-546.4105224609375	405.2894897460938	69.44822692871094	-709.0250854492188	522.3333129882812	297.174560546875	-640.9065551757812	560.69970703125	35.66459655761719	-561.3573608398438	482.9354248046875	41.99990463256836	-556.8052368164062	331.7343139648438	101.9692001342773	-691.2323608398438	597.7924194335938	497.9990539550781	-202.2313232421875	501.8145446777344	753.2256469726562	-205.5569915771484	696.4440307617188	24.4714298248291	-245.8627319335938	641.3853759765625	383.9134521484375	-194.1226348876953	788.1900024414062	57.00605773925781	-56.61973190307617	817.9973754882812	47.33685684204102	-119.7494964599609	701.9157104492188	32.30446624755859	-133.519287109375	739.093994140625	22.89867782592773	-318.2019653320312	517.145263671875	32.43835067749023	-667.4630126953125	nan	nan	nan	
542	5.41	439.2760314941406	1003.333801269531	-413.8049621582031	526.657958984375	1016.745239257812	-494.9555969238281	490.0974731445312	1095.925415039062	-470.0402526855469	658.1746826171875	1275.173583984375	-279.5520629882812	485.8214721679688	1222.957397460938	-465.7071838378906	532.7506713867188	1483.0966796875	-416.8326721191406	639.8353881835938	1392.951538085938	-295.4513549804688	425.8955078125	1345.817626953125	-431.5884399414062	601.775634765625	1446.661376953125	-506.8215026855469	701.8851318359375	1444.10546875	-476.2119140625	743.674560546875	1329.5712890625	-551.5048217773438	793.7782592773438	1124.323120117188	-561.4656372070312	712.7125854492188	1098.288818359375	-583.28857421875	838.9347534179688	905.8522338867188	-437.1281433105469	884.7822265625	888.1897583007812	-506.1564636230469	831.8663940429688	1022.2626953125	-546.6015014648438	876.4097900390625	716.1710205078125	-420.1862487792969	906.6151733398438	804.83642578125	-481.0299377441406	892.2352905273438	814.0360717773438	-414.5765686035156	443.1878967285156	1438.091674804688	-263.552001953125	378.7540283203125	1373.01220703125	-237.2502899169922	329.1827697753906	1093.543334960938	-240.6277770996094	376.0071411132812	1088.0537109375	-323.2232055664062	444.9026489257812	877.4908447265625	-166.0270385742188	360.5903015136719	864.1996459960938	-166.11572265625	333.3095092773438	1025.154296875	-213.5331878662109	455.0721740722656	683.9382934570312	-154.2352142333984	455.3804931640625	757.498291015625	-124.1221694946289	383.8660888671875	757.4075927734375	-134.8280029296875	537.6182250976562	1647.990112304688	-351.0439147949219	726.0234375	1659.192138671875	-222.7767333984375	641.5972290039062	1657.101440429688	-170.5959930419922	675.9520263671875	1649.324584960938	-379.5192565917969	698.1492309570312	961.7724609375	-529.5396118164062	439.906005859375	962.9444580078125	-269.2725219726562	531.0733032226562	1007.010314941406	-227.9292449951172	736.2898559570312	1001.761413574219	-420.7466430664062	639.3572998046875	483.6097412109375	-539.6639404296875	674.4901733398438	625.4204711914062	-536.7273559570312	408.1984252929688	74.69287109375	-708.7490234375	529.0484619140625	300.2901000976562	-635.9933471679688	560.8969116210938	35.62886047363281	-561.49609375	483.7530212402344	43.03634262084961	-556.6548461914062	335.8072814941406	109.4679107666016	-690.5453491210938	601.737548828125	499.0381469726562	-196.2285461425781	505.4889831542969	754.352294921875	-199.1784057617188	696.8009643554688	25.04206848144531	-245.2045135498047	644.9413452148438	384.3847351074219	-189.166259765625	789.9679565429688	53.76725387573242	-55.08482360839844	819.2145385742188	45.20867538452148	-118.9187927246094	702.9120483398438	32.44759750366211	-132.7874908447266	739.0746459960938	23.43315505981445	-317.6423950195312	517.8861694335938	32.61901473999023	-667.1109619140625	nan	nan	nan	
